<svg xmlns="http://www.w3.org/2000/svg" viewBox="0 0 140 40" fill="none"><path d="M70.0,20.0 Q55.3,16.2 41.3,22.0" stroke="#7b8f54" stroke-width="1.1" fill="none" opacity="0.8"/><path d="M65.2,20.3 Q63.8,16.6 59.9,16.5 Q61.3,20.1 65.2,20.3 Z" fill="#7b8f54" opacity="0.8"/><path d="M65.2,20.3 Q61.3,21.1 60.5,24.9 Q64.3,24.2 65.2,20.3 Z" fill="#7b8f54" opacity="0.8"/><path d="M60.4,20.7 Q59.0,17.0 55.1,16.8 Q56.5,20.5 60.4,20.7 Z" fill="#7b8f54" opacity="0.8"/><path d="M60.4,20.7 Q56.5,21.4 55.7,25.3 Q59.6,24.5 60.4,20.7 Z" fill="#7b8f54" opacity="0.8"/><path d="M55.6,21.0 Q54.2,17.3 50.3,17.1 Q51.7,20.8 55.6,21.0 Z" fill="#7b8f54" opacity="0.8"/><path d="M55.6,21.0 Q51.8,21.7 50.9,25.6 Q54.8,24.9 55.6,21.0 Z" fill="#7b8f54" opacity="0.8"/><path d="M50.8,21.3 Q49.4,17.7 45.5,17.5 Q46.9,21.1 50.8,21.3 Z" fill="#7b8f54" opacity="0.8"/><path d="M50.8,21.3 Q47.0,22.1 46.1,25.9 Q50.0,25.2 50.8,21.3 Z" fill="#7b8f54" opacity="0.8"/><path d="M46.1,21.7 Q44.7,18.0 40.7,17.8 Q42.1,21.5 46.1,21.7 Z" fill="#7b8f54" opacity="0.8"/><path d="M46.1,21.7 Q42.2,22.4 41.3,26.3 Q45.2,25.5 46.1,21.7 Z" fill="#7b8f54" opacity="0.8"/><path d="M41.3,22.0 Q37.5,20.1 34.1,22.5 Q37.8,24.4 41.3,22.0 Z" fill="#7b8f54" opacity="0.85"/><path d="M70.0,20.0 Q84.0,25.8 98.7,22.0" stroke="#9aab6b" stroke-width="1.1" fill="none" opacity="0.8"/><path d="M74.8,20.3 Q75.7,24.2 79.5,24.9 Q78.7,21.1 74.8,20.3 Z" fill="#9aab6b" opacity="0.8"/><path d="M74.8,20.3 Q78.7,20.1 80.1,16.5 Q76.2,16.6 74.8,20.3 Z" fill="#9aab6b" opacity="0.8"/><path d="M79.6,20.7 Q80.4,24.5 84.3,25.3 Q83.5,21.4 79.6,20.7 Z" fill="#9aab6b" opacity="0.8"/><path d="M79.6,20.7 Q83.5,20.5 84.9,16.8 Q81.0,17.0 79.6,20.7 Z" fill="#9aab6b" opacity="0.8"/><path d="M84.4,21.0 Q85.2,24.9 89.1,25.6 Q88.2,21.7 84.4,21.0 Z" fill="#9aab6b" opacity="0.8"/><path d="M84.4,21.0 Q88.3,20.8 89.7,17.1 Q85.8,17.3 84.4,21.0 Z" fill="#9aab6b" opacity="0.8"/><path d="M89.2,21.3 Q90.0,25.2 93.9,25.9 Q93.0,22.1 89.2,21.3 Z" fill="#9aab6b" opacity="0.8"/><path d="M89.2,21.3 Q93.1,21.1 94.5,17.5 Q90.6,17.7 89.2,21.3 Z" fill="#9aab6b" opacity="0.8"/><path d="M93.9,21.7 Q94.8,25.5 98.7,26.3 Q97.8,22.4 93.9,21.7 Z" fill="#9aab6b" opacity="0.8"/><path d="M93.9,21.7 Q97.9,21.5 99.3,17.8 Q95.3,18.0 93.9,21.7 Z" fill="#9aab6b" opacity="0.8"/><path d="M98.7,22.0 Q102.2,24.4 105.9,22.5 Q102.5,20.1 98.7,22.0 Z" fill="#9aab6b" opacity="0.85"/><path d="M70.0,20.0 Q65.9,19.8 63.9,23.5 Q68.1,23.7 70.0,20.0 Z" fill="#7b8f54" opacity="0.9"/><path d="M70.0,20.0 Q71.9,23.7 76.1,23.5 Q74.1,19.8 70.0,20.0 Z" fill="#7b8f54" opacity="0.9"/><circle cx="60.0" cy="20.0" r="6.8" fill="#e7a9b2" opacity="0.16"/><ellipse cx="64.2" cy="21.1" rx="2.6" ry="3.4" fill="#e7a9b2" opacity="0.92" transform="rotate(105.0 64.2 21.1)"/><ellipse cx="61.1" cy="24.2" rx="2.6" ry="3.4" fill="#e7a9b2" opacity="0.92" transform="rotate(165.0 61.1 24.2)"/><ellipse cx="56.9" cy="23.1" rx="2.6" ry="3.4" fill="#e7a9b2" opacity="0.92" transform="rotate(225.0 56.9 23.1)"/><ellipse cx="55.8" cy="18.9" rx="2.6" ry="3.4" fill="#e7a9b2" opacity="0.92" transform="rotate(285.0 55.8 18.9)"/><ellipse cx="58.9" cy="15.8" rx="2.6" ry="3.4" fill="#e7a9b2" opacity="0.92" transform="rotate(345.0 58.9 15.8)"/><ellipse cx="63.1" cy="16.9" rx="2.6" ry="3.4" fill="#e7a9b2" opacity="0.92" transform="rotate(405.0 63.1 16.9)"/><circle cx="60.0" cy="20.0" r="2.3" fill="#cd7787"/><circle cx="59.2" cy="19.2" r="0.9" fill="#f9f5ec" opacity="0.5"/><circle cx="80.0" cy="20.0" r="6.8" fill="#edca77" opacity="0.16"/><ellipse cx="83.8" cy="22.2" rx="2.6" ry="3.4" fill="#edca77" opacity="0.92" transform="rotate(120.0 83.8 22.2)"/><ellipse cx="80.0" cy="24.4" rx="2.6" ry="3.4" fill="#edca77" opacity="0.92" transform="rotate(180.0 80.0 24.4)"/><ellipse cx="76.2" cy="22.2" rx="2.6" ry="3.4" fill="#edca77" opacity="0.92" transform="rotate(240.0 76.2 22.2)"/><ellipse cx="76.2" cy="17.8" rx="2.6" ry="3.4" fill="#edca77" opacity="0.92" transform="rotate(300.0 76.2 17.8)"/><ellipse cx="80.0" cy="15.6" rx="2.6" ry="3.4" fill="#edca77" opacity="0.92" transform="rotate(360.0 80.0 15.6)"/><ellipse cx="83.8" cy="17.8" rx="2.6" ry="3.4" fill="#edca77" opacity="0.92" transform="rotate(420.0 83.8 17.8)"/><circle cx="80.0" cy="20.0" r="2.3" fill="#d6a53e"/><circle cx="79.2" cy="19.2" r="0.9" fill="#f9f5ec" opacity="0.5"/><circle cx="70.0" cy="19.0" r="8.3" fill="#b9a6d6" opacity="0.16"/><ellipse cx="75.2" cy="19.9" rx="3.1" ry="4.1" fill="#b9a6d6" opacity="0.92" transform="rotate(100.0 75.2 19.9)"/><ellipse cx="72.5" cy="23.6" rx="3.1" ry="4.1" fill="#b9a6d6" opacity="0.92" transform="rotate(151.4 72.5 23.6)"/><ellipse cx="67.9" cy="23.9" rx="3.1" ry="4.1" fill="#b9a6d6" opacity="0.92" transform="rotate(202.9 67.9 23.9)"/><ellipse cx="64.9" cy="20.4" rx="3.1" ry="4.1" fill="#b9a6d6" opacity="0.92" transform="rotate(254.3 64.9 20.4)"/><ellipse cx="65.7" cy="15.9" rx="3.1" ry="4.1" fill="#b9a6d6" opacity="0.92" transform="rotate(305.7 65.7 15.9)"/><ellipse cx="69.7" cy="13.7" rx="3.1" ry="4.1" fill="#b9a6d6" opacity="0.92" transform="rotate(357.1 69.7 13.7)"/><ellipse cx="74.0" cy="15.5" rx="3.1" ry="4.1" fill="#b9a6d6" opacity="0.92" transform="rotate(408.6 74.0 15.5)"/><circle cx="70.0" cy="19.0" r="2.8" fill="#8270ad"/><circle cx="69.1" cy="18.1" r="1.1" fill="#f9f5ec" opacity="0.5"/></svg>